<svg xmlns="http://www.w3.org/2000/svg" viewBox="0 0 640 640" role="img" aria-labelledby="title desc">
  <title id="title">Chandbali gold earrings</title>
  <desc id="desc">Original product render of gold chandbali earrings with ruby accents.</desc>
  <defs>
    <radialGradient id="bg" cx="50%" cy="35%" r="70%">
      <stop offset="0" stop-color="#fff7ed"/>
      <stop offset="1" stop-color="#f7d7df"/>
    </radialGradient>
    <linearGradient id="gold" x1="0" x2="1" y1="0" y2="1">
      <stop offset="0" stop-color="#fff0a8"/>
      <stop offset="0.38" stop-color="#d6a23a"/>
      <stop offset="0.72" stop-color="#946315"/>
      <stop offset="1" stop-color="#f6cf67"/>
    </linearGradient>
    <radialGradient id="ruby" cx="35%" cy="30%" r="70%">
      <stop offset="0" stop-color="#ff8ab1"/>
      <stop offset="1" stop-color="#9d174d"/>
    </radialGradient>
    <filter id="shadow" x="-20%" y="-20%" width="140%" height="150%">
      <feDropShadow dx="0" dy="18" stdDeviation="18" flood-color="#6b122f" flood-opacity="0.22"/>
    </filter>
  </defs>
  <rect width="640" height="640" rx="56" fill="url(#bg)"/>
  <g filter="url(#shadow)" transform="translate(0 8)">
    <g transform="translate(178 106)">
      <circle cx="0" cy="0" r="27" fill="url(#ruby)" stroke="url(#gold)" stroke-width="8"/>
      <path d="M0 30v62" stroke="url(#gold)" stroke-width="12" stroke-linecap="round"/>
      <path d="M-76 104a76 76 0 0 0 152 0" fill="none" stroke="url(#gold)" stroke-width="20" stroke-linecap="round"/>
      <path d="M-48 106a48 48 0 0 0 96 0" fill="none" stroke="#f9d879" stroke-width="8" stroke-linecap="round"/>
      <circle cx="-60" cy="107" r="10" fill="url(#ruby)"/>
      <circle cx="-30" cy="140" r="10" fill="url(#ruby)"/>
      <circle cx="0" cy="152" r="10" fill="url(#ruby)"/>
      <circle cx="30" cy="140" r="10" fill="url(#ruby)"/>
      <circle cx="60" cy="107" r="10" fill="url(#ruby)"/>
      <path d="M-72 176c18 35 44 53 72 53s54-18 72-53" fill="none" stroke="url(#gold)" stroke-width="14" stroke-linecap="round"/>
      <circle cx="0" cy="244" r="25" fill="url(#ruby)" stroke="url(#gold)" stroke-width="8"/>
    </g>
    <g transform="translate(462 106)">
      <circle cx="0" cy="0" r="27" fill="url(#ruby)" stroke="url(#gold)" stroke-width="8"/>
      <path d="M0 30v62" stroke="url(#gold)" stroke-width="12" stroke-linecap="round"/>
      <path d="M-76 104a76 76 0 0 0 152 0" fill="none" stroke="url(#gold)" stroke-width="20" stroke-linecap="round"/>
      <path d="M-48 106a48 48 0 0 0 96 0" fill="none" stroke="#f9d879" stroke-width="8" stroke-linecap="round"/>
      <circle cx="-60" cy="107" r="10" fill="url(#ruby)"/>
      <circle cx="-30" cy="140" r="10" fill="url(#ruby)"/>
      <circle cx="0" cy="152" r="10" fill="url(#ruby)"/>
      <circle cx="30" cy="140" r="10" fill="url(#ruby)"/>
      <circle cx="60" cy="107" r="10" fill="url(#ruby)"/>
      <path d="M-72 176c18 35 44 53 72 53s54-18 72-53" fill="none" stroke="url(#gold)" stroke-width="14" stroke-linecap="round"/>
      <circle cx="0" cy="244" r="25" fill="url(#ruby)" stroke="url(#gold)" stroke-width="8"/>
    </g>
  </g>
</svg>
