<svg xmlns="http://www.w3.org/2000/svg" viewBox="0 0 240 320" role="img" aria-labelledby="title desc">
  <title id="title">Earring 01</title>
  <desc id="desc">A pair of gold crescent earrings with pink stones.</desc>
  <defs>
    <radialGradient id="gold" cx="35%" cy="25%" r="75%">
      <stop offset="0" stop-color="#fff3b0"/>
      <stop offset="0.45" stop-color="#d9a441"/>
      <stop offset="1" stop-color="#9b6424"/>
    </radialGradient>
    <linearGradient id="rose" x1="0" x2="1">
      <stop offset="0" stop-color="#ff8bb5"/>
      <stop offset="1" stop-color="#b3164f"/>
    </linearGradient>
  </defs>
  <g fill="none" stroke-linecap="round" stroke-linejoin="round">
    <g transform="translate(60 150)">
      <circle r="11" fill="url(#rose)" stroke="#f7d66b" stroke-width="4"/>
      <path d="M-34 5a34 34 0 0 0 68 0" stroke="url(#gold)" stroke-width="13"/>
      <path d="M-22 2a22 22 0 0 0 44 0" stroke="#fff1a8" stroke-width="3" opacity=".7"/>
      <path d="M-28 35c12 20 44 20 56 0" stroke="url(#gold)" stroke-width="8"/>
      <g fill="url(#rose)" stroke="#f7d66b" stroke-width="2">
        <circle cx="-25" cy="45" r="5"/>
        <circle cx="-9" cy="51" r="5"/>
        <circle cx="9" cy="51" r="5"/>
        <circle cx="25" cy="45" r="5"/>
      </g>
    </g>
    <g transform="translate(180 150) scale(-1 1)">
      <circle r="11" fill="url(#rose)" stroke="#f7d66b" stroke-width="4"/>
      <path d="M-34 5a34 34 0 0 0 68 0" stroke="url(#gold)" stroke-width="13"/>
      <path d="M-22 2a22 22 0 0 0 44 0" stroke="#fff1a8" stroke-width="3" opacity=".7"/>
      <path d="M-28 35c12 20 44 20 56 0" stroke="url(#gold)" stroke-width="8"/>
      <g fill="url(#rose)" stroke="#f7d66b" stroke-width="2">
        <circle cx="-25" cy="45" r="5"/>
        <circle cx="-9" cy="51" r="5"/>
        <circle cx="9" cy="51" r="5"/>
        <circle cx="25" cy="45" r="5"/>
      </g>
    </g>
  </g>
</svg>
